<svg width="17" height="18" viewBox="0 0 17 18" fill="none" xmlns="http://www.w3.org/2000/svg">
<path d="M14.2 15.8L15.4 17M9.79999 13.8C9.79999 14.4365 10.0528 15.047 10.5029 15.4971C10.953 15.9471 11.5635 16.2 12.2 16.2C12.8365 16.2 13.447 15.9471 13.897 15.4971C14.3471 15.047 14.6 14.4365 14.6 13.8C14.6 13.1635 14.3471 12.553 13.897 12.1029C13.447 11.6529 12.8365 11.4 12.2 11.4C11.5635 11.4 10.953 11.6529 10.5029 12.1029C10.0528 12.553 9.79999 13.1635 9.79999 13.8Z" stroke="white" stroke-width="2" stroke-linecap="round" stroke-linejoin="round"/>
<path d="M13.8 9V3.9992C13.8 3.93605 13.7876 3.87351 13.7635 3.81517C13.7393 3.75683 13.7039 3.70382 13.6592 3.6592L11.1408 1.1408C11.0509 1.05076 10.9289 1.00011 10.8016 1H1.48C1.3527 1 1.23061 1.05057 1.14059 1.14059C1.05057 1.23061 1 1.3527 1 1.48V16.52C1 16.6473 1.05057 16.7694 1.14059 16.8594C1.23061 16.9494 1.3527 17 1.48 17H6.6" stroke="white" stroke-width="1.7" stroke-linecap="round" stroke-linejoin="round"/>
<path d="M11 1.26507V3.54993C11 3.66929 11.0474 3.78377 11.1318 3.86817C11.2162 3.95258 11.3306 4 11.4499 4H13.734C13.7865 4.00026 13.838 3.98485 13.8818 3.95573C13.9256 3.9266 13.9598 3.88509 13.9799 3.83648C14 3.78786 14.0052 3.73436 13.9948 3.68279C13.9843 3.63122 13.9588 3.58392 13.9214 3.54693L11.4529 1.07754C11.4158 1.0405 11.3685 1.01528 11.3171 1.00508C11.2657 0.99487 11.2124 1.00013 11.1639 1.02019C11.1155 1.04025 11.0741 1.07421 11.0449 1.11779C11.0157 1.16137 11.0001 1.21262 11 1.26507Z" stroke="white" stroke-linecap="round" stroke-linejoin="round"/>
</svg>
