<svg width="22" height="22" viewBox="0 0 22 22" fill="none" xmlns="http://www.w3.org/2000/svg">
<path d="M11 9.16667C12.0551 9.16667 12.8333 8.38933 12.8333 7.33333C12.8333 6.27733 12.0551 5.5 11 5.5C9.94581 5.5 9.16665 6.27733 9.16665 7.33333C9.16665 8.38933 9.94581 9.16667 11 9.16667ZM11 10.0833C8.97506 10.0833 7.33331 11.561 7.33331 13.3833V13.7372H14.6666V13.3833C14.6666 11.561 13.0249 10.0833 11 10.0833Z" fill="white"/>
<path d="M17.4167 1.83331H4.58333C3.57225 1.83331 2.75 2.65556 2.75 3.66665V15.5833C2.75 16.5944 3.57225 17.4166 4.58333 17.4166H8.25L11 20.1666L13.75 17.4166H17.4167C18.4278 17.4166 19.25 16.5944 19.25 15.5833V3.66665C19.25 2.65556 18.4278 1.83331 17.4167 1.83331ZM12.8333 15.5833L11 17.4166L9.16667 15.5833H4.58333V3.66665H17.4167L17.4185 15.5833H12.8333Z" fill="white"/>
</svg>
