<svg width="18" height="17" viewBox="0 0 18 17" fill="none" xmlns="http://www.w3.org/2000/svg">
<path d="M6.57272 16C5.28217 15.6147 4.11337 14.9018 3.18009 13.9307C3.48037 13.5746 3.66755 13.1369 3.71769 12.6738C3.76783 12.2106 3.67865 11.7431 3.46155 11.3309C3.24445 10.9188 2.90931 10.5808 2.49902 10.3601C2.08873 10.1395 1.62194 10.0464 1.1584 10.0925C1.05279 9.57526 0.999725 9.04863 1 8.52068C1 7.70529 1.12484 6.91877 1.35737 6.17985H1.39014C1.78798 6.17998 2.1793 6.07871 2.52713 5.88559C2.87496 5.69248 3.16783 5.4139 3.3781 5.07615C3.58836 4.73841 3.70906 4.35265 3.72882 3.95529C3.74858 3.55794 3.66674 3.1621 3.49103 2.80517C4.40574 1.95343 5.51196 1.33428 6.71629 1C6.91229 1.38483 7.21093 1.70794 7.57916 1.93358C7.9474 2.15922 8.37088 2.27859 8.80275 2.27848C9.23462 2.27859 9.6581 2.15922 10.0263 1.93358C10.3946 1.70794 10.6932 1.38483 10.8892 1C12.0935 1.33428 13.1998 1.95343 14.1145 2.80517C13.9375 3.1646 13.8557 3.56345 13.877 3.96354C13.8982 4.36363 14.0218 4.75156 14.2359 5.09021C14.4501 5.42885 14.7475 5.70688 15.0998 5.89766C15.4521 6.08845 15.8475 6.18561 16.2481 6.17985C16.4857 6.93739 16.6062 7.72676 16.6055 8.52068C16.6055 9.05907 16.5509 9.58497 16.4471 10.0929C15.9836 10.0467 15.5168 10.1399 15.1065 10.3605C14.6962 10.5811 14.361 10.9192 14.1439 11.3313C13.9268 11.7435 13.8377 12.211 13.8878 12.6742C13.9379 13.1373 14.1251 13.575 14.4254 13.9311C13.4921 14.902 12.3233 15.6148 11.0328 16C10.8812 15.5277 10.5836 15.1156 10.1828 14.8233C9.78205 14.531 9.2988 14.3735 8.80275 14.3735C8.30669 14.3735 7.82344 14.531 7.42266 14.8233C7.02188 15.1156 6.72427 15.5277 6.57272 16Z" stroke="white" stroke-width="1.7" stroke-linejoin="round"/>
<path d="M8.80274 11.2516C9.16137 11.2516 9.5165 11.181 9.84783 11.0437C10.1792 10.9065 10.4802 10.7053 10.7338 10.4517C10.9874 10.1981 11.1886 9.89706 11.3258 9.56573C11.4631 9.23439 11.5337 8.87927 11.5337 8.52063C11.5337 8.162 11.4631 7.80688 11.3258 7.47554C11.1886 7.14421 10.9874 6.84315 10.7338 6.58955C10.4802 6.33596 10.1792 6.1348 9.84783 5.99755C9.5165 5.86031 9.16137 5.78967 8.80274 5.78967C8.07844 5.78967 7.38381 6.0774 6.87166 6.58955C6.3595 7.10171 6.07178 7.79634 6.07178 8.52063C6.07178 9.24493 6.3595 9.93956 6.87166 10.4517C7.38381 10.9639 8.07844 11.2516 8.80274 11.2516V11.2516Z" stroke="white" stroke-width="1.7" stroke-linejoin="round"/>
</svg>
