<svg width="18" height="17" viewBox="0 0 18 17" fill="none" xmlns="http://www.w3.org/2000/svg">
<path d="M16.0588 8.5H7.11765M14.1765 11.3125L17 8.5L14.1765 5.6875M9.47059 3.8125V2.875C9.47059 2.37772 9.27227 1.90081 8.91926 1.54917C8.56625 1.19754 8.08747 1 7.58824 1H2.88235C2.38312 1 1.90434 1.19754 1.55133 1.54917C1.19832 1.90081 1 2.37772 1 2.875V14.125C1 14.6223 1.19832 15.0992 1.55133 15.4508C1.90434 15.8025 2.38312 16 2.88235 16H7.58824C8.08747 16 8.56625 15.8025 8.91926 15.4508C9.27227 15.0992 9.47059 14.6223 9.47059 14.125V13.1875" stroke="#EE0D0D" stroke-width="1.7" stroke-linecap="round" stroke-linejoin="round"/>
</svg>
