<svg width="14" height="14" viewBox="0 0 14 14" fill="none" xmlns="http://www.w3.org/2000/svg">
<path d="M7.40257 -6.10352e-05H6.21497C6.10941 -6.10352e-05 6.05663 0.0517908 6.05663 0.155495V13.8444C6.05663 13.9481 6.10941 13.9999 6.21497 13.9999H7.40257C7.50813 13.9999 7.56091 13.9481 7.56091 13.8444V0.155495C7.56091 0.0517908 7.50813 -6.10352e-05 7.40257 -6.10352e-05Z" fill="#353333"/>
<path d="M13.4593 6.26105H0.158284C0.0527201 6.26105 -6.19888e-05 6.3129 -6.19888e-05 6.4166V7.58327C-6.19888e-05 7.68697 0.0527201 7.73883 0.158284 7.73883H13.4593C13.5649 7.73883 13.6177 7.68697 13.6177 7.58327V6.4166C13.6177 6.3129 13.5649 6.26105 13.4593 6.26105Z" fill="#353333"/>
</svg>
